<mxfile host="app.diagrams.net" modified="2023-09-30T12:42:02.757Z" agent="Mozilla/5.0 (Windows NT 10.0; Win64; x64) AppleWebKit/537.36 (KHTML, like Gecko) Chrome/117.0.0.0 Safari/537.36" etag="IWei4opkHolw3zrAU4kh" version="22.0.0" type="github">
  <diagram id="R2lEEEUBdFMjLlhIrx00" name="Page-1">
    <mxGraphModel dx="954" dy="1678" grid="0" gridSize="10" guides="1" tooltips="1" connect="1" arrows="1" fold="1" page="1" pageScale="1" pageWidth="850" pageHeight="1100" background="none" math="0" shadow="0" extFonts="Permanent Marker^https://fonts.googleapis.com/css?family=Permanent+Marker">
      <root>
        <mxCell id="0" />
        <mxCell id="1" style="" parent="0" />
        <mxCell id="hwRPY_H_E-aeXSSc8FPx-1" value="ALUNO" style="swimlane;fontStyle=0;childLayout=stackLayout;horizontal=1;startSize=30;horizontalStack=0;resizeParent=1;resizeParentMax=0;resizeLast=0;collapsible=1;marginBottom=0;whiteSpace=wrap;html=1;fillColor=#FFEE05;" parent="1" vertex="1">
          <mxGeometry x="60" width="170" height="120" as="geometry">
            <mxRectangle x="90" y="15" width="80" height="30" as="alternateBounds" />
          </mxGeometry>
        </mxCell>
        <mxCell id="9-QWL7e6mqtxBqOt5Rx7-5" value="" style="shape=table;startSize=0;container=1;collapsible=1;childLayout=tableLayout;fixedRows=1;rowLines=0;fontStyle=0;align=center;resizeLast=1;strokeColor=none;fillColor=none;collapsible=0;" parent="hwRPY_H_E-aeXSSc8FPx-1" vertex="1">
          <mxGeometry y="30" width="170" height="30" as="geometry" />
        </mxCell>
        <mxCell id="9-QWL7e6mqtxBqOt5Rx7-6" value="" style="shape=tableRow;horizontal=0;startSize=0;swimlaneHead=0;swimlaneBody=0;fillColor=none;collapsible=0;dropTarget=0;points=[[0,0.5],[1,0.5]];portConstraint=eastwest;top=0;left=0;right=0;bottom=1;" parent="9-QWL7e6mqtxBqOt5Rx7-5" vertex="1">
          <mxGeometry width="170" height="30" as="geometry" />
        </mxCell>
        <mxCell id="9-QWL7e6mqtxBqOt5Rx7-7" value="PK" style="shape=partialRectangle;connectable=0;fillColor=none;top=0;left=0;bottom=0;right=0;fontStyle=1;overflow=hidden;whiteSpace=wrap;html=1;" parent="9-QWL7e6mqtxBqOt5Rx7-6" vertex="1">
          <mxGeometry width="30" height="30" as="geometry">
            <mxRectangle width="30" height="30" as="alternateBounds" />
          </mxGeometry>
        </mxCell>
        <mxCell id="9-QWL7e6mqtxBqOt5Rx7-8" value="COD_ALUNO(varchar)" style="shape=partialRectangle;connectable=0;fillColor=none;top=0;left=0;bottom=0;right=0;align=left;spacingLeft=6;fontStyle=5;overflow=hidden;whiteSpace=wrap;html=1;" parent="9-QWL7e6mqtxBqOt5Rx7-6" vertex="1">
          <mxGeometry x="30" width="140" height="30" as="geometry">
            <mxRectangle width="140" height="30" as="alternateBounds" />
          </mxGeometry>
        </mxCell>
        <mxCell id="hwRPY_H_E-aeXSSc8FPx-3" value="NOME_ALUNO(varchar)" style="text;strokeColor=none;fillColor=none;align=left;verticalAlign=middle;spacingLeft=4;spacingRight=4;overflow=hidden;points=[[0,0.5],[1,0.5]];portConstraint=eastwest;rotatable=0;whiteSpace=wrap;html=1;" parent="hwRPY_H_E-aeXSSc8FPx-1" vertex="1">
          <mxGeometry y="60" width="170" height="30" as="geometry" />
        </mxCell>
        <mxCell id="hwRPY_H_E-aeXSSc8FPx-4" value="NUM_CPF(int)" style="text;strokeColor=none;fillColor=none;align=left;verticalAlign=middle;spacingLeft=4;spacingRight=4;overflow=hidden;points=[[0,0.5],[1,0.5]];portConstraint=eastwest;rotatable=0;whiteSpace=wrap;html=1;" parent="hwRPY_H_E-aeXSSc8FPx-1" vertex="1">
          <mxGeometry y="90" width="170" height="30" as="geometry" />
        </mxCell>
        <mxCell id="hwRPY_H_E-aeXSSc8FPx-5" value="CURSO" style="swimlane;fontStyle=0;childLayout=stackLayout;horizontal=1;startSize=30;horizontalStack=0;resizeParent=1;resizeParentMax=0;resizeLast=0;collapsible=1;marginBottom=0;whiteSpace=wrap;html=1;fillColor=#FFEE05;" parent="1" vertex="1">
          <mxGeometry x="550" y="280" width="170" height="120" as="geometry">
            <mxRectangle x="557.5" y="160" width="80" height="30" as="alternateBounds" />
          </mxGeometry>
        </mxCell>
        <mxCell id="9-QWL7e6mqtxBqOt5Rx7-57" value="" style="shape=table;startSize=0;container=1;collapsible=1;childLayout=tableLayout;fixedRows=1;rowLines=0;fontStyle=0;align=center;resizeLast=1;strokeColor=none;fillColor=none;collapsible=0;" parent="hwRPY_H_E-aeXSSc8FPx-5" vertex="1">
          <mxGeometry y="30" width="170" height="30" as="geometry" />
        </mxCell>
        <mxCell id="9-QWL7e6mqtxBqOt5Rx7-58" value="" style="shape=tableRow;horizontal=0;startSize=0;swimlaneHead=0;swimlaneBody=0;fillColor=none;collapsible=0;dropTarget=0;points=[[0,0.5],[1,0.5]];portConstraint=eastwest;top=0;left=0;right=0;bottom=1;" parent="9-QWL7e6mqtxBqOt5Rx7-57" vertex="1">
          <mxGeometry width="170" height="30" as="geometry" />
        </mxCell>
        <mxCell id="9-QWL7e6mqtxBqOt5Rx7-59" value="PK" style="shape=partialRectangle;connectable=0;fillColor=none;top=0;left=0;bottom=0;right=0;fontStyle=1;overflow=hidden;whiteSpace=wrap;html=1;align=center;" parent="9-QWL7e6mqtxBqOt5Rx7-58" vertex="1">
          <mxGeometry width="30" height="30" as="geometry">
            <mxRectangle width="30" height="30" as="alternateBounds" />
          </mxGeometry>
        </mxCell>
        <mxCell id="9-QWL7e6mqtxBqOt5Rx7-60" value="COD_CURSO(varchar)" style="shape=partialRectangle;connectable=0;fillColor=none;top=0;left=0;bottom=0;right=0;align=left;spacingLeft=6;fontStyle=5;overflow=hidden;whiteSpace=wrap;html=1;" parent="9-QWL7e6mqtxBqOt5Rx7-58" vertex="1">
          <mxGeometry x="30" width="140" height="30" as="geometry">
            <mxRectangle width="140" height="30" as="alternateBounds" />
          </mxGeometry>
        </mxCell>
        <mxCell id="hwRPY_H_E-aeXSSc8FPx-7" value="NOME_CURSO(varchar)" style="text;strokeColor=none;fillColor=none;align=left;verticalAlign=middle;spacingLeft=4;spacingRight=4;overflow=hidden;points=[[0,0.5],[1,0.5]];portConstraint=eastwest;rotatable=0;whiteSpace=wrap;html=1;" parent="hwRPY_H_E-aeXSSc8FPx-5" vertex="1">
          <mxGeometry y="60" width="170" height="30" as="geometry" />
        </mxCell>
        <mxCell id="C94Znu9yKtxbw8L8RZEC-2" value="VLR_CURSO(double)" style="text;strokeColor=none;fillColor=none;align=left;verticalAlign=middle;spacingLeft=4;spacingRight=4;overflow=hidden;points=[[0,0.5],[1,0.5]];portConstraint=eastwest;rotatable=0;whiteSpace=wrap;html=1;" parent="hwRPY_H_E-aeXSSc8FPx-5" vertex="1">
          <mxGeometry y="90" width="170" height="30" as="geometry" />
        </mxCell>
        <mxCell id="hwRPY_H_E-aeXSSc8FPx-9" value="DISCIPLINA" style="swimlane;fontStyle=0;childLayout=stackLayout;horizontal=1;startSize=30;horizontalStack=0;resizeParent=1;resizeParentMax=0;resizeLast=0;collapsible=1;marginBottom=0;whiteSpace=wrap;html=1;align=center;fillColor=#ffff00;strokeColor=default;gradientColor=none;swimlaneFillColor=default;rounded=0;shadow=0;glass=0;" parent="1" vertex="1">
          <mxGeometry x="295" y="280" width="195" height="120" as="geometry">
            <mxRectangle x="285" y="300" width="110" height="30" as="alternateBounds" />
          </mxGeometry>
        </mxCell>
        <mxCell id="9-QWL7e6mqtxBqOt5Rx7-17" value="" style="shape=table;startSize=0;container=1;collapsible=1;childLayout=tableLayout;fixedRows=1;rowLines=0;fontStyle=0;align=center;resizeLast=1;strokeColor=none;fillColor=none;collapsible=0;" parent="hwRPY_H_E-aeXSSc8FPx-9" vertex="1">
          <mxGeometry y="30" width="195" height="30" as="geometry" />
        </mxCell>
        <mxCell id="9-QWL7e6mqtxBqOt5Rx7-18" value="" style="shape=tableRow;horizontal=0;startSize=0;swimlaneHead=0;swimlaneBody=0;fillColor=none;collapsible=0;dropTarget=0;points=[[0,0.5],[1,0.5]];portConstraint=eastwest;top=0;left=0;right=0;bottom=1;align=center;" parent="9-QWL7e6mqtxBqOt5Rx7-17" vertex="1">
          <mxGeometry width="195" height="30" as="geometry" />
        </mxCell>
        <mxCell id="9-QWL7e6mqtxBqOt5Rx7-19" value="PK" style="shape=partialRectangle;connectable=0;fillColor=none;top=0;left=0;bottom=0;right=0;fontStyle=1;overflow=hidden;whiteSpace=wrap;html=1;align=center;" parent="9-QWL7e6mqtxBqOt5Rx7-18" vertex="1">
          <mxGeometry width="30" height="30" as="geometry">
            <mxRectangle width="30" height="30" as="alternateBounds" />
          </mxGeometry>
        </mxCell>
        <mxCell id="9-QWL7e6mqtxBqOt5Rx7-20" value="COD_DISCIPLINA(varchar)" style="shape=partialRectangle;connectable=0;fillColor=none;top=0;left=0;bottom=0;right=0;align=center;spacingLeft=6;fontStyle=5;overflow=hidden;whiteSpace=wrap;html=1;" parent="9-QWL7e6mqtxBqOt5Rx7-18" vertex="1">
          <mxGeometry x="30" width="165" height="30" as="geometry">
            <mxRectangle width="165" height="30" as="alternateBounds" />
          </mxGeometry>
        </mxCell>
        <mxCell id="hwRPY_H_E-aeXSSc8FPx-11" value="NOME_DISCIPLINA(varchar)" style="text;strokeColor=none;fillColor=none;align=left;verticalAlign=middle;spacingLeft=4;spacingRight=4;overflow=hidden;points=[[0,0.5],[1,0.5]];portConstraint=eastwest;rotatable=0;whiteSpace=wrap;html=1;" parent="hwRPY_H_E-aeXSSc8FPx-9" vertex="1">
          <mxGeometry y="60" width="195" height="30" as="geometry" />
        </mxCell>
        <mxCell id="hwRPY_H_E-aeXSSc8FPx-12" value="QTD_CARGA_HORARIA(time)" style="text;strokeColor=default;fillColor=default;align=center;verticalAlign=middle;spacingLeft=4;spacingRight=4;overflow=hidden;points=[[0,0.5],[1,0.5]];portConstraint=eastwest;rotatable=0;labelPosition=center;verticalLabelPosition=middle;horizontal=1;whiteSpace=wrap;html=1;" parent="hwRPY_H_E-aeXSSc8FPx-9" vertex="1">
          <mxGeometry y="90" width="195" height="30" as="geometry" />
        </mxCell>
        <mxCell id="hwRPY_H_E-aeXSSc8FPx-13" value="PROFESSOR" style="swimlane;fontStyle=0;childLayout=stackLayout;horizontal=1;startSize=30;horizontalStack=0;resizeParent=1;resizeParentMax=0;resizeLast=0;collapsible=1;marginBottom=0;whiteSpace=wrap;html=1;fillColor=#FFEE05;align=center;" parent="1" vertex="1">
          <mxGeometry x="290" y="150" width="200" height="120" as="geometry">
            <mxRectangle x="300" y="160" width="120" height="30" as="alternateBounds" />
          </mxGeometry>
        </mxCell>
        <mxCell id="9-QWL7e6mqtxBqOt5Rx7-9" value="" style="shape=table;startSize=0;container=1;collapsible=1;childLayout=tableLayout;fixedRows=1;rowLines=0;fontStyle=0;align=center;resizeLast=1;strokeColor=none;fillColor=none;collapsible=0;" parent="hwRPY_H_E-aeXSSc8FPx-13" vertex="1">
          <mxGeometry y="30" width="200" height="30" as="geometry" />
        </mxCell>
        <mxCell id="9-QWL7e6mqtxBqOt5Rx7-10" value="" style="shape=tableRow;horizontal=0;startSize=0;swimlaneHead=0;swimlaneBody=0;fillColor=none;collapsible=0;dropTarget=0;points=[[0,0.5],[1,0.5]];portConstraint=eastwest;top=0;left=0;right=0;bottom=1;align=center;" parent="9-QWL7e6mqtxBqOt5Rx7-9" vertex="1">
          <mxGeometry width="200" height="30" as="geometry" />
        </mxCell>
        <mxCell id="9-QWL7e6mqtxBqOt5Rx7-11" value="PK" style="shape=partialRectangle;connectable=0;fillColor=none;top=0;left=0;bottom=0;right=0;fontStyle=1;overflow=hidden;whiteSpace=wrap;html=1;align=center;" parent="9-QWL7e6mqtxBqOt5Rx7-10" vertex="1">
          <mxGeometry width="30" height="30" as="geometry">
            <mxRectangle width="30" height="30" as="alternateBounds" />
          </mxGeometry>
        </mxCell>
        <mxCell id="9-QWL7e6mqtxBqOt5Rx7-12" value="COD_PROFESSOR(varchar)" style="shape=partialRectangle;connectable=0;fillColor=none;top=0;left=0;bottom=0;right=0;align=center;spacingLeft=6;fontStyle=5;overflow=hidden;whiteSpace=wrap;html=1;" parent="9-QWL7e6mqtxBqOt5Rx7-10" vertex="1">
          <mxGeometry x="30" width="170" height="30" as="geometry">
            <mxRectangle width="170" height="30" as="alternateBounds" />
          </mxGeometry>
        </mxCell>
        <mxCell id="hwRPY_H_E-aeXSSc8FPx-15" value="NOME_PROFESSOR(varchar)" style="text;strokeColor=none;fillColor=none;align=left;verticalAlign=middle;spacingLeft=4;spacingRight=4;overflow=hidden;points=[[0,0.5],[1,0.5]];portConstraint=eastwest;rotatable=0;whiteSpace=wrap;html=1;" parent="hwRPY_H_E-aeXSSc8FPx-13" vertex="1">
          <mxGeometry y="60" width="200" height="30" as="geometry" />
        </mxCell>
        <mxCell id="hwRPY_H_E-aeXSSc8FPx-16" value="VLR_SALARIO(double)" style="text;strokeColor=none;fillColor=none;align=left;verticalAlign=middle;spacingLeft=4;spacingRight=4;overflow=hidden;points=[[0,0.5],[1,0.5]];portConstraint=eastwest;rotatable=0;whiteSpace=wrap;html=1;" parent="hwRPY_H_E-aeXSSc8FPx-13" vertex="1">
          <mxGeometry y="90" width="200" height="30" as="geometry" />
        </mxCell>
        <mxCell id="hwRPY_H_E-aeXSSc8FPx-17" value="MATRICULA" style="swimlane;fontStyle=0;childLayout=stackLayout;horizontal=1;startSize=30;horizontalStack=0;resizeParent=1;resizeParentMax=0;resizeLast=0;collapsible=1;marginBottom=0;whiteSpace=wrap;html=1;fillColor=#FFEE05;align=center;" parent="1" vertex="1">
          <mxGeometry x="540" width="200" height="120" as="geometry">
            <mxRectangle x="290" y="15" width="110" height="30" as="alternateBounds" />
          </mxGeometry>
        </mxCell>
        <mxCell id="9-QWL7e6mqtxBqOt5Rx7-39" value="" style="shape=table;startSize=0;container=1;collapsible=1;childLayout=tableLayout;fixedRows=1;rowLines=0;fontStyle=0;align=center;resizeLast=1;strokeColor=none;fillColor=none;collapsible=0;" parent="hwRPY_H_E-aeXSSc8FPx-17" vertex="1">
          <mxGeometry y="30" width="200" height="30" as="geometry" />
        </mxCell>
        <mxCell id="9-QWL7e6mqtxBqOt5Rx7-40" value="" style="shape=tableRow;horizontal=0;startSize=0;swimlaneHead=0;swimlaneBody=0;fillColor=none;collapsible=0;dropTarget=0;points=[[0,0.5],[1,0.5]];portConstraint=eastwest;top=0;left=0;right=0;bottom=1;align=center;" parent="9-QWL7e6mqtxBqOt5Rx7-39" vertex="1">
          <mxGeometry width="200" height="30" as="geometry" />
        </mxCell>
        <mxCell id="9-QWL7e6mqtxBqOt5Rx7-41" value="PK" style="shape=partialRectangle;connectable=0;fillColor=none;top=0;left=0;bottom=0;right=0;fontStyle=1;overflow=hidden;whiteSpace=wrap;html=1;align=center;" parent="9-QWL7e6mqtxBqOt5Rx7-40" vertex="1">
          <mxGeometry width="30" height="30" as="geometry">
            <mxRectangle width="30" height="30" as="alternateBounds" />
          </mxGeometry>
        </mxCell>
        <mxCell id="9-QWL7e6mqtxBqOt5Rx7-42" value="COD_MATRICULA(varchar)" style="shape=partialRectangle;connectable=0;fillColor=none;top=0;left=0;bottom=0;right=0;align=center;spacingLeft=6;fontStyle=5;overflow=hidden;whiteSpace=wrap;html=1;" parent="9-QWL7e6mqtxBqOt5Rx7-40" vertex="1">
          <mxGeometry x="30" width="170" height="30" as="geometry">
            <mxRectangle width="170" height="30" as="alternateBounds" />
          </mxGeometry>
        </mxCell>
        <mxCell id="9-QWL7e6mqtxBqOt5Rx7-1" value="" style="shape=table;startSize=0;container=1;collapsible=1;childLayout=tableLayout;fixedRows=1;rowLines=0;fontStyle=0;align=center;resizeLast=1;strokeColor=none;fillColor=none;collapsible=0;" parent="hwRPY_H_E-aeXSSc8FPx-17" vertex="1">
          <mxGeometry y="60" width="200" height="30" as="geometry" />
        </mxCell>
        <mxCell id="9-QWL7e6mqtxBqOt5Rx7-2" value="" style="shape=tableRow;horizontal=0;startSize=0;swimlaneHead=0;swimlaneBody=0;fillColor=none;collapsible=0;dropTarget=0;points=[[0,0.5],[1,0.5]];portConstraint=eastwest;top=0;left=0;right=0;bottom=0;align=center;" parent="9-QWL7e6mqtxBqOt5Rx7-1" vertex="1">
          <mxGeometry width="200" height="30" as="geometry" />
        </mxCell>
        <mxCell id="9-QWL7e6mqtxBqOt5Rx7-3" value="FK" style="shape=partialRectangle;connectable=0;fillColor=none;top=0;left=0;bottom=0;right=0;fontStyle=0;overflow=hidden;whiteSpace=wrap;html=1;align=center;" parent="9-QWL7e6mqtxBqOt5Rx7-2" vertex="1">
          <mxGeometry width="30" height="30" as="geometry">
            <mxRectangle width="30" height="30" as="alternateBounds" />
          </mxGeometry>
        </mxCell>
        <mxCell id="9-QWL7e6mqtxBqOt5Rx7-4" value="COD_ALUNO(varchar)" style="shape=partialRectangle;connectable=0;fillColor=none;top=0;left=0;bottom=0;right=0;align=center;spacingLeft=6;fontStyle=0;overflow=hidden;whiteSpace=wrap;html=1;" parent="9-QWL7e6mqtxBqOt5Rx7-2" vertex="1">
          <mxGeometry x="30" width="170" height="30" as="geometry">
            <mxRectangle width="170" height="30" as="alternateBounds" />
          </mxGeometry>
        </mxCell>
        <mxCell id="C94Znu9yKtxbw8L8RZEC-8" value="VLR_MATRICULA(double)" style="text;strokeColor=none;fillColor=none;align=left;verticalAlign=middle;spacingLeft=4;spacingRight=4;overflow=hidden;points=[[0,0.5],[1,0.5]];portConstraint=eastwest;rotatable=0;whiteSpace=wrap;html=1;" parent="hwRPY_H_E-aeXSSc8FPx-17" vertex="1">
          <mxGeometry y="90" width="200" height="30" as="geometry" />
        </mxCell>
        <mxCell id="hwRPY_H_E-aeXSSc8FPx-24" value="" style="endArrow=none;html=1;rounded=0;edgeStyle=elbowEdgeStyle;" parent="1" source="9-QWL7e6mqtxBqOt5Rx7-62" target="9-QWL7e6mqtxBqOt5Rx7-58" edge="1">
          <mxGeometry width="50" height="50" relative="1" as="geometry">
            <mxPoint x="800" y="130" as="sourcePoint" />
            <mxPoint x="599.9999999999998" y="225" as="targetPoint" />
            <Array as="points">
              <mxPoint x="730" y="290" />
            </Array>
          </mxGeometry>
        </mxCell>
        <mxCell id="9-QWL7e6mqtxBqOt5Rx7-70" value="1_N" style="edgeLabel;html=1;align=center;verticalAlign=middle;resizable=0;points=[];" parent="hwRPY_H_E-aeXSSc8FPx-24" vertex="1" connectable="0">
          <mxGeometry x="-0.117" y="3" relative="1" as="geometry">
            <mxPoint x="12" y="5" as="offset" />
          </mxGeometry>
        </mxCell>
        <mxCell id="hwRPY_H_E-aeXSSc8FPx-26" value="DISCILINAS_PROFESSOR" style="swimlane;fontStyle=0;childLayout=stackLayout;horizontal=1;startSize=30;horizontalStack=0;resizeParent=1;resizeParentMax=0;resizeLast=0;collapsible=1;marginBottom=0;whiteSpace=wrap;html=1;fillColor=#FFEE05;" parent="1" vertex="1">
          <mxGeometry x="20" y="150" width="200" height="120" as="geometry">
            <mxRectangle x="30" y="148" width="190" height="30" as="alternateBounds" />
          </mxGeometry>
        </mxCell>
        <mxCell id="9-QWL7e6mqtxBqOt5Rx7-13" value="" style="shape=table;startSize=0;container=1;collapsible=1;childLayout=tableLayout;fixedRows=1;rowLines=0;fontStyle=0;align=center;resizeLast=1;strokeColor=none;fillColor=none;collapsible=0;" parent="hwRPY_H_E-aeXSSc8FPx-26" vertex="1">
          <mxGeometry y="30" width="200" height="30" as="geometry" />
        </mxCell>
        <mxCell id="9-QWL7e6mqtxBqOt5Rx7-14" value="" style="shape=tableRow;horizontal=0;startSize=0;swimlaneHead=0;swimlaneBody=0;fillColor=none;collapsible=0;dropTarget=0;points=[[0,0.5],[1,0.5]];portConstraint=eastwest;top=0;left=0;right=0;bottom=0;" parent="9-QWL7e6mqtxBqOt5Rx7-13" vertex="1">
          <mxGeometry width="200" height="30" as="geometry" />
        </mxCell>
        <mxCell id="9-QWL7e6mqtxBqOt5Rx7-15" value="FK" style="shape=partialRectangle;connectable=0;fillColor=none;top=0;left=0;bottom=0;right=0;fontStyle=0;overflow=hidden;whiteSpace=wrap;html=1;" parent="9-QWL7e6mqtxBqOt5Rx7-14" vertex="1">
          <mxGeometry width="30" height="30" as="geometry">
            <mxRectangle width="30" height="30" as="alternateBounds" />
          </mxGeometry>
        </mxCell>
        <mxCell id="9-QWL7e6mqtxBqOt5Rx7-16" value="COD_PROFESSOR(varchar)" style="shape=partialRectangle;connectable=0;fillColor=none;top=0;left=0;bottom=0;right=0;align=left;spacingLeft=6;fontStyle=0;overflow=hidden;whiteSpace=wrap;html=1;" parent="9-QWL7e6mqtxBqOt5Rx7-14" vertex="1">
          <mxGeometry x="30" width="170" height="30" as="geometry">
            <mxRectangle width="170" height="30" as="alternateBounds" />
          </mxGeometry>
        </mxCell>
        <mxCell id="hwRPY_H_E-aeXSSc8FPx-27" value="COD_DISCIPLINAS_PROF(varchar)" style="text;strokeColor=none;fillColor=none;align=left;verticalAlign=middle;spacingLeft=4;spacingRight=4;overflow=hidden;points=[[0,0.5],[1,0.5]];portConstraint=eastwest;rotatable=0;whiteSpace=wrap;html=1;" parent="hwRPY_H_E-aeXSSc8FPx-26" vertex="1">
          <mxGeometry y="60" width="200" height="30" as="geometry" />
        </mxCell>
        <mxCell id="9-QWL7e6mqtxBqOt5Rx7-31" value="" style="shape=table;startSize=0;container=1;collapsible=1;childLayout=tableLayout;fixedRows=1;rowLines=0;fontStyle=0;align=center;resizeLast=1;strokeColor=none;fillColor=none;collapsible=0;" parent="hwRPY_H_E-aeXSSc8FPx-26" vertex="1">
          <mxGeometry y="90" width="200" height="30" as="geometry" />
        </mxCell>
        <mxCell id="9-QWL7e6mqtxBqOt5Rx7-32" value="" style="shape=tableRow;horizontal=0;startSize=0;swimlaneHead=0;swimlaneBody=0;fillColor=none;collapsible=0;dropTarget=0;points=[[0,0.5],[1,0.5]];portConstraint=eastwest;top=0;left=0;right=0;bottom=0;" parent="9-QWL7e6mqtxBqOt5Rx7-31" vertex="1">
          <mxGeometry width="200" height="30" as="geometry" />
        </mxCell>
        <mxCell id="9-QWL7e6mqtxBqOt5Rx7-33" value="FK" style="shape=partialRectangle;connectable=0;fillColor=none;top=0;left=0;bottom=0;right=0;fontStyle=0;overflow=hidden;whiteSpace=wrap;html=1;" parent="9-QWL7e6mqtxBqOt5Rx7-32" vertex="1">
          <mxGeometry width="30" height="30" as="geometry">
            <mxRectangle width="30" height="30" as="alternateBounds" />
          </mxGeometry>
        </mxCell>
        <mxCell id="9-QWL7e6mqtxBqOt5Rx7-34" value="COD_DISCIPLINA(varchar)" style="shape=partialRectangle;connectable=0;fillColor=none;top=0;left=0;bottom=0;right=0;align=left;spacingLeft=6;fontStyle=0;overflow=hidden;whiteSpace=wrap;html=1;" parent="9-QWL7e6mqtxBqOt5Rx7-32" vertex="1">
          <mxGeometry x="30" width="170" height="30" as="geometry">
            <mxRectangle width="170" height="30" as="alternateBounds" />
          </mxGeometry>
        </mxCell>
        <mxCell id="hwRPY_H_E-aeXSSc8FPx-33" value="" style="endArrow=none;html=1;rounded=0;edgeStyle=orthogonalEdgeStyle;align=center;" parent="1" source="9-QWL7e6mqtxBqOt5Rx7-32" target="9-QWL7e6mqtxBqOt5Rx7-18" edge="1">
          <mxGeometry width="50" height="50" relative="1" as="geometry">
            <mxPoint x="200" y="265" as="sourcePoint" />
            <mxPoint x="240" y="345.0000000000002" as="targetPoint" />
          </mxGeometry>
        </mxCell>
        <mxCell id="9-QWL7e6mqtxBqOt5Rx7-72" value="N_1" style="edgeLabel;html=1;align=center;verticalAlign=middle;resizable=0;points=[];" parent="hwRPY_H_E-aeXSSc8FPx-33" vertex="1" connectable="0">
          <mxGeometry x="-0.0054" relative="1" as="geometry">
            <mxPoint x="-18" y="-46" as="offset" />
          </mxGeometry>
        </mxCell>
        <mxCell id="hwRPY_H_E-aeXSSc8FPx-35" value="DISCIPLINAS_MATRICULA" style="swimlane;fontStyle=0;childLayout=stackLayout;horizontal=1;startSize=30;horizontalStack=0;resizeParent=1;resizeParentMax=0;resizeLast=0;collapsible=1;marginBottom=0;whiteSpace=wrap;html=1;fillColor=#FFEE05;" parent="1" vertex="1">
          <mxGeometry x="260" width="242.5" height="120" as="geometry">
            <mxRectangle x="530" y="300" width="190" height="30" as="alternateBounds" />
          </mxGeometry>
        </mxCell>
        <mxCell id="hwRPY_H_E-aeXSSc8FPx-37" value="COD_DISCIPLINAS_MATRICULA(varchar)" style="text;strokeColor=none;fillColor=none;align=left;verticalAlign=middle;spacingLeft=4;spacingRight=4;overflow=hidden;points=[[0,0.5],[1,0.5]];portConstraint=eastwest;rotatable=0;whiteSpace=wrap;html=1;" parent="hwRPY_H_E-aeXSSc8FPx-35" vertex="1">
          <mxGeometry y="30" width="242.5" height="30" as="geometry" />
        </mxCell>
        <mxCell id="9-QWL7e6mqtxBqOt5Rx7-35" value="" style="shape=table;startSize=0;container=1;collapsible=1;childLayout=tableLayout;fixedRows=1;rowLines=0;fontStyle=0;align=center;resizeLast=1;strokeColor=none;fillColor=none;collapsible=0;" parent="hwRPY_H_E-aeXSSc8FPx-35" vertex="1">
          <mxGeometry y="60" width="242.5" height="60" as="geometry" />
        </mxCell>
        <mxCell id="9-QWL7e6mqtxBqOt5Rx7-43" value="" style="shape=tableRow;horizontal=0;startSize=0;swimlaneHead=0;swimlaneBody=0;fillColor=none;collapsible=0;dropTarget=0;points=[[0,0.5],[1,0.5]];portConstraint=eastwest;top=0;left=0;right=0;bottom=0;align=left;" parent="9-QWL7e6mqtxBqOt5Rx7-35" vertex="1">
          <mxGeometry width="242.5" height="30" as="geometry" />
        </mxCell>
        <mxCell id="9-QWL7e6mqtxBqOt5Rx7-44" value="FK" style="shape=partialRectangle;connectable=0;fillColor=none;top=0;left=0;bottom=0;right=0;fontStyle=0;overflow=hidden;whiteSpace=wrap;html=1;align=center;" parent="9-QWL7e6mqtxBqOt5Rx7-43" vertex="1">
          <mxGeometry width="30" height="30" as="geometry">
            <mxRectangle width="30" height="30" as="alternateBounds" />
          </mxGeometry>
        </mxCell>
        <mxCell id="9-QWL7e6mqtxBqOt5Rx7-45" value="COD_MATRICULA(varchar)" style="shape=partialRectangle;connectable=0;fillColor=none;top=0;left=0;bottom=0;right=0;align=left;spacingLeft=6;fontStyle=0;overflow=hidden;whiteSpace=wrap;html=1;" parent="9-QWL7e6mqtxBqOt5Rx7-43" vertex="1">
          <mxGeometry x="30" width="212.5" height="30" as="geometry">
            <mxRectangle width="212.5" height="30" as="alternateBounds" />
          </mxGeometry>
        </mxCell>
        <mxCell id="9-QWL7e6mqtxBqOt5Rx7-36" value="" style="shape=tableRow;horizontal=0;startSize=0;swimlaneHead=0;swimlaneBody=0;fillColor=none;collapsible=0;dropTarget=0;points=[[0,0.5],[1,0.5]];portConstraint=eastwest;top=0;left=0;right=0;bottom=0;" parent="9-QWL7e6mqtxBqOt5Rx7-35" vertex="1">
          <mxGeometry y="30" width="242.5" height="30" as="geometry" />
        </mxCell>
        <mxCell id="9-QWL7e6mqtxBqOt5Rx7-37" value="FK" style="shape=partialRectangle;connectable=0;fillColor=none;top=0;left=0;bottom=0;right=0;fontStyle=0;overflow=hidden;whiteSpace=wrap;html=1;align=center;" parent="9-QWL7e6mqtxBqOt5Rx7-36" vertex="1">
          <mxGeometry width="30" height="30" as="geometry">
            <mxRectangle width="30" height="30" as="alternateBounds" />
          </mxGeometry>
        </mxCell>
        <mxCell id="9-QWL7e6mqtxBqOt5Rx7-38" value="COD_DISCIPLINA(varchar)" style="shape=partialRectangle;connectable=0;fillColor=none;top=0;left=0;bottom=0;right=0;align=left;spacingLeft=6;fontStyle=0;overflow=hidden;whiteSpace=wrap;html=1;" parent="9-QWL7e6mqtxBqOt5Rx7-36" vertex="1">
          <mxGeometry x="30" width="212.5" height="30" as="geometry">
            <mxRectangle width="212.5" height="30" as="alternateBounds" />
          </mxGeometry>
        </mxCell>
        <mxCell id="hwRPY_H_E-aeXSSc8FPx-39" value="" style="endArrow=none;html=1;rounded=0;edgeStyle=orthogonalEdgeStyle;align=center;" parent="1" source="9-QWL7e6mqtxBqOt5Rx7-43" target="9-QWL7e6mqtxBqOt5Rx7-40" edge="1">
          <mxGeometry width="50" height="50" relative="1" as="geometry">
            <mxPoint x="664.9999999999998" y="374.9999999999998" as="sourcePoint" />
            <mxPoint x="489.9999999999998" y="60" as="targetPoint" />
            <Array as="points">
              <mxPoint x="510" y="75" />
              <mxPoint x="510" y="45" />
            </Array>
          </mxGeometry>
        </mxCell>
        <mxCell id="9-QWL7e6mqtxBqOt5Rx7-67" value="1_N" style="edgeLabel;html=1;align=center;verticalAlign=middle;resizable=0;points=[];rotation=0;" parent="hwRPY_H_E-aeXSSc8FPx-39" vertex="1" connectable="0">
          <mxGeometry x="-0.005" y="-3" relative="1" as="geometry">
            <mxPoint x="11" y="11" as="offset" />
          </mxGeometry>
        </mxCell>
        <mxCell id="hwRPY_H_E-aeXSSc8FPx-41" value="" style="endArrow=none;html=1;rounded=0;edgeStyle=orthogonalEdgeStyle;align=center;" parent="1" source="9-QWL7e6mqtxBqOt5Rx7-36" target="9-QWL7e6mqtxBqOt5Rx7-18" edge="1">
          <mxGeometry width="50" height="50" relative="1" as="geometry">
            <mxPoint x="419.9999999999998" y="404.9999999999998" as="sourcePoint" />
            <mxPoint x="400.0000000000002" y="345.0000000000002" as="targetPoint" />
            <Array as="points">
              <mxPoint x="513" y="105" />
              <mxPoint x="513" y="325" />
            </Array>
          </mxGeometry>
        </mxCell>
        <mxCell id="9-QWL7e6mqtxBqOt5Rx7-69" value="1_1" style="edgeLabel;html=1;align=center;verticalAlign=middle;resizable=0;points=[];" parent="hwRPY_H_E-aeXSSc8FPx-41" vertex="1" connectable="0">
          <mxGeometry x="0.0105" y="2" relative="1" as="geometry">
            <mxPoint x="-13" y="44" as="offset" />
          </mxGeometry>
        </mxCell>
        <mxCell id="C94Znu9yKtxbw8L8RZEC-3" value="CURSOS_MATRICULA" style="swimlane;fontStyle=0;childLayout=stackLayout;horizontal=1;startSize=30;horizontalStack=0;resizeParent=1;resizeParentMax=0;resizeLast=0;collapsible=1;marginBottom=0;whiteSpace=wrap;html=1;fillColor=#FFEE05;" parent="1" vertex="1">
          <mxGeometry x="540" y="135" width="220" height="120" as="geometry">
            <mxRectangle x="540" y="15" width="170" height="30" as="alternateBounds" />
          </mxGeometry>
        </mxCell>
        <mxCell id="9-QWL7e6mqtxBqOt5Rx7-53" value="" style="shape=table;startSize=0;container=1;collapsible=1;childLayout=tableLayout;fixedRows=1;rowLines=0;fontStyle=0;align=center;resizeLast=1;strokeColor=none;fillColor=none;collapsible=0;" parent="C94Znu9yKtxbw8L8RZEC-3" vertex="1">
          <mxGeometry y="30" width="220" height="30" as="geometry" />
        </mxCell>
        <mxCell id="9-QWL7e6mqtxBqOt5Rx7-54" value="" style="shape=tableRow;horizontal=0;startSize=0;swimlaneHead=0;swimlaneBody=0;fillColor=none;collapsible=0;dropTarget=0;points=[[0,0.5],[1,0.5]];portConstraint=eastwest;top=0;left=0;right=0;bottom=0;" parent="9-QWL7e6mqtxBqOt5Rx7-53" vertex="1">
          <mxGeometry width="220" height="30" as="geometry" />
        </mxCell>
        <mxCell id="9-QWL7e6mqtxBqOt5Rx7-55" value="FK" style="shape=partialRectangle;connectable=0;fillColor=none;top=0;left=0;bottom=0;right=0;fontStyle=0;overflow=hidden;whiteSpace=wrap;html=1;align=center;" parent="9-QWL7e6mqtxBqOt5Rx7-54" vertex="1">
          <mxGeometry width="30" height="30" as="geometry">
            <mxRectangle width="30" height="30" as="alternateBounds" />
          </mxGeometry>
        </mxCell>
        <mxCell id="9-QWL7e6mqtxBqOt5Rx7-56" value="COD_MATRICULA(varchar)" style="shape=partialRectangle;connectable=0;fillColor=none;top=0;left=0;bottom=0;right=0;align=left;spacingLeft=6;fontStyle=0;overflow=hidden;whiteSpace=wrap;html=1;" parent="9-QWL7e6mqtxBqOt5Rx7-54" vertex="1">
          <mxGeometry x="30" width="190" height="30" as="geometry">
            <mxRectangle width="190" height="30" as="alternateBounds" />
          </mxGeometry>
        </mxCell>
        <mxCell id="C94Znu9yKtxbw8L8RZEC-4" value="COD_CURSOS_MATRICULA(varchar)" style="text;strokeColor=none;fillColor=none;align=left;verticalAlign=middle;spacingLeft=4;spacingRight=4;overflow=hidden;points=[[0,0.5],[1,0.5]];portConstraint=eastwest;rotatable=0;whiteSpace=wrap;html=1;" parent="C94Znu9yKtxbw8L8RZEC-3" vertex="1">
          <mxGeometry y="60" width="220" height="30" as="geometry" />
        </mxCell>
        <mxCell id="9-QWL7e6mqtxBqOt5Rx7-61" value="" style="shape=table;startSize=0;container=1;collapsible=1;childLayout=tableLayout;fixedRows=1;rowLines=0;fontStyle=0;align=center;resizeLast=1;strokeColor=none;fillColor=none;collapsible=0;" parent="C94Znu9yKtxbw8L8RZEC-3" vertex="1">
          <mxGeometry y="90" width="220" height="30" as="geometry" />
        </mxCell>
        <mxCell id="9-QWL7e6mqtxBqOt5Rx7-62" value="" style="shape=tableRow;horizontal=0;startSize=0;swimlaneHead=0;swimlaneBody=0;fillColor=none;collapsible=0;dropTarget=0;points=[[0,0.5],[1,0.5]];portConstraint=eastwest;top=0;left=0;right=0;bottom=0;" parent="9-QWL7e6mqtxBqOt5Rx7-61" vertex="1">
          <mxGeometry width="220" height="30" as="geometry" />
        </mxCell>
        <mxCell id="9-QWL7e6mqtxBqOt5Rx7-63" value="FK" style="shape=partialRectangle;connectable=0;fillColor=none;top=0;left=0;bottom=0;right=0;fontStyle=0;overflow=hidden;whiteSpace=wrap;html=1;align=center;" parent="9-QWL7e6mqtxBqOt5Rx7-62" vertex="1">
          <mxGeometry width="30" height="30" as="geometry">
            <mxRectangle width="30" height="30" as="alternateBounds" />
          </mxGeometry>
        </mxCell>
        <mxCell id="9-QWL7e6mqtxBqOt5Rx7-64" value="COD_CURSO(varchar)" style="shape=partialRectangle;connectable=0;fillColor=none;top=0;left=0;bottom=0;right=0;align=left;spacingLeft=6;fontStyle=0;overflow=hidden;whiteSpace=wrap;html=1;" parent="9-QWL7e6mqtxBqOt5Rx7-62" vertex="1">
          <mxGeometry x="30" width="190" height="30" as="geometry">
            <mxRectangle width="190" height="30" as="alternateBounds" />
          </mxGeometry>
        </mxCell>
        <mxCell id="C94Znu9yKtxbw8L8RZEC-7" value="" style="endArrow=none;html=1;rounded=0;edgeStyle=orthogonalEdgeStyle;align=center;" parent="1" source="9-QWL7e6mqtxBqOt5Rx7-40" target="9-QWL7e6mqtxBqOt5Rx7-54" edge="1">
          <mxGeometry width="50" height="50" relative="1" as="geometry">
            <mxPoint x="489.9999999999998" y="60" as="sourcePoint" />
            <mxPoint x="530" y="90" as="targetPoint" />
            <Array as="points">
              <mxPoint x="770" y="40" />
              <mxPoint x="770" y="180" />
            </Array>
          </mxGeometry>
        </mxCell>
        <mxCell id="9-QWL7e6mqtxBqOt5Rx7-65" value="1_N" style="edgeLabel;html=1;align=center;verticalAlign=middle;resizable=0;points=[];" parent="C94Znu9yKtxbw8L8RZEC-7" vertex="1" connectable="0">
          <mxGeometry x="0.1788" y="-2" relative="1" as="geometry">
            <mxPoint x="-13" y="-12" as="offset" />
          </mxGeometry>
        </mxCell>
        <mxCell id="aVh59EeRkCMSgH5gao-5-1" value="" style="edgeStyle=orthogonalEdgeStyle;fontSize=12;html=1;endArrow=ERoneToMany;rounded=0;" edge="1" parent="1" source="9-QWL7e6mqtxBqOt5Rx7-2" target="9-QWL7e6mqtxBqOt5Rx7-6">
          <mxGeometry width="100" height="100" relative="1" as="geometry">
            <mxPoint x="370" y="320" as="sourcePoint" />
            <mxPoint x="470" y="220" as="targetPoint" />
            <Array as="points">
              <mxPoint x="750" y="75" />
              <mxPoint x="750" y="-10" />
              <mxPoint x="240" y="-10" />
              <mxPoint x="240" y="45" />
            </Array>
          </mxGeometry>
        </mxCell>
        <mxCell id="aVh59EeRkCMSgH5gao-5-2" value="N_1" style="edgeLabel;html=1;align=center;verticalAlign=middle;resizable=0;points=[];" vertex="1" connectable="0" parent="aVh59EeRkCMSgH5gao-5-1">
          <mxGeometry x="0.0388" y="-2" relative="1" as="geometry">
            <mxPoint x="-1" y="-8" as="offset" />
          </mxGeometry>
        </mxCell>
        <mxCell id="aVh59EeRkCMSgH5gao-5-3" value="" style="edgeStyle=entityRelationEdgeStyle;fontSize=12;html=1;endArrow=ERmandOne;startArrow=ERmandOne;rounded=0;" edge="1" parent="1" source="9-QWL7e6mqtxBqOt5Rx7-14" target="9-QWL7e6mqtxBqOt5Rx7-10">
          <mxGeometry width="100" height="100" relative="1" as="geometry">
            <mxPoint x="400" y="260" as="sourcePoint" />
            <mxPoint x="500" y="160" as="targetPoint" />
          </mxGeometry>
        </mxCell>
        <mxCell id="aVh59EeRkCMSgH5gao-5-4" value="1_1" style="edgeLabel;html=1;align=center;verticalAlign=middle;resizable=0;points=[];" vertex="1" connectable="0" parent="aVh59EeRkCMSgH5gao-5-3">
          <mxGeometry x="0.0571" y="-1" relative="1" as="geometry">
            <mxPoint x="-6" y="-11" as="offset" />
          </mxGeometry>
        </mxCell>
      </root>
    </mxGraphModel>
  </diagram>
</mxfile>
